# xmcd CD database file
#
# Track frame offsets:
#	150
#	15156
#	35340
#	48557
#	61215
#	73021
#	83617
#	94061
#	108205
#	122452
#	136237
#	150169
#	161363
#	174616
#	185426
#
# Disc length: 2675 seconds
#
# Revision: 2
# Processed by: cddbd v1.5.2PL0 Copyright (c) Steve Scherf et al.
# Submitted via: CDex 1.51
#
DISCID=aa0a710f
DTITLE=Die schönsten Märsche - CD1
DYEAR=2003
DGENRE=Country
TTITLE0=Persischer Marsch
TTITLE1=Alte Kameraden
TTITLE2=Einzug der Gladiatoren
TTITLE3=Radetzky Marsch
TTITLE4=Preussen´s Gloria
TTITLE5=Pariser Einzugsmarsch
TTITLE6=Wien bleibt Wien
TTITLE7=Steinmetzmarsch
TTITLE8=Regimentsgruss
TTITLE9=Tölzer Schützenmarsch
TTITLE10=Helenen Marsch
TTITLE11=BAyrischer Defiliermarsch
TTITLE12=Tiroler Holzhackermarsch
TTITLE13=Weidmannsheil Marsch
TTITLE14=Unter dem Doppeladler
EXTD=YEAR: 2003
EXTT0=
EXTT1=
EXTT2=
EXTT3=
EXTT4=
EXTT5=
EXTT6=
EXTT7=
EXTT8=
EXTT9=
EXTT10=
EXTT11=
EXTT12=
EXTT13=
EXTT14=
PLAYORDER=
